<svg xmlns="http://www.w3.org/2000/svg" id="Layer_1" x="0px" y="0px" viewBox="0 0 500 500" style="enable-background:new 0 0 500 500;">
	<g><path d="M437.422,391.982h2.681l1.155-4.024h-2.684L437.422,391.982z M425.816,391.982h2.684l1.152-4.024h-2.681L425.816,391.982z    M414.211,391.982h2.687l1.155-4.024h-2.69L414.211,391.982z M405.881,384.567c-1.075,3.747-3.676,5.92-6.558,5.92   c-2.054,0-2.841-1.657-2.134-4.106c0.704-2.482,2.278-3.711,4.83-4.339l2.121-0.513c1.017-0.237,2.483-0.67,2.921-1.383h0.083   L405.881,384.567z M400.308,377.26c0.87-3.039,2.582-4.738,5.384-4.738c2.134,0,3.359,0.945,2.591,3.631   c-0.704,2.452-1.174,2.844-2.962,3.319l-4.821,1.259c-3.199,0.828-5.099,3.042-5.896,5.801c-1.04,3.634-0.035,5.924,3.634,5.924   c2.332,0,4.69-0.79,6.43-3.549h0.083l-0.205,0.705c-0.627,2.171,0.435,2.605,2.294,2.605c0.31,0,0.691-0.082,1.171-0.238   l0.502-1.739h-0.669c-0.832,0-1.068-0.55-0.729-1.737l3.554-12.394c0.95-3.313,0.019-5.56-4.328-5.56   c-4.418,0-7.163,2.402-8.394,6.707h2.361V377.26z M365.101,391.982h2.361l4.047-14.091c0.928-3.234,3.439-5.368,5.803-5.368   c2.134,0,2.905,1.302,2.188,3.789l-4.494,15.67h2.37l4.044-14.091c0.928-3.234,3.432-5.368,5.803-5.368   c2.127,0,2.898,1.302,2.185,3.789l-4.491,15.67h2.364l4.6-16.023c1.072-3.748-0.387-5.403-3.308-5.403   c-2.684,0-4.766,1.337-6.376,3.672h-0.08c0.288-2.14-0.809-3.672-3.33-3.672c-2.332,0-4.533,1.062-6.308,3.391h-0.083l0.841-2.922   h-2.131L365.101,391.982z M362.631,367.823h2.364l1.158-4.031h-2.364L362.631,367.823z M355.705,391.982h2.367l6.011-20.961h-2.37   L355.705,391.982z M348.322,384.567c-1.078,3.747-3.679,5.92-6.555,5.92c-2.051,0-2.841-1.657-2.14-4.106   c0.707-2.482,2.29-3.711,4.83-4.339l2.127-0.513c1.014-0.237,2.482-0.67,2.921-1.383h0.083L348.322,384.567z M342.759,377.26   c0.867-3.039,2.578-4.738,5.38-4.738c2.134,0,3.362,0.945,2.591,3.631c-0.704,2.452-1.177,2.844-2.966,3.319l-4.821,1.259   c-3.199,0.828-5.099,3.042-5.883,5.801c-1.04,3.634-0.048,5.924,3.631,5.924c2.322,0,4.68-0.79,6.42-3.549h0.083l-0.205,0.705   c-0.617,2.171,0.438,2.605,2.297,2.605c0.314,0,0.688-0.082,1.171-0.238l0.499-1.739h-0.669c-0.835,0-1.068-0.55-0.729-1.737   l3.557-12.394c0.953-3.313,0.016-5.56-4.325-5.56c-4.424,0-7.166,2.402-8.394,6.707h2.361V377.26z M321.611,381.476   c2.217-7.733,4.782-8.954,7.146-8.954c2.412,0,4.232,1.225,2.012,8.954c-2.233,7.78-4.754,9.005-7.163,9.005   C321.24,390.486,319.375,389.256,321.611,381.476 M327.996,391.982h2.131l8.081-28.184h-2.364l-2.975,10.389h-0.083   c0.118-2.21-1.244-3.631-3.851-3.631c-4.616,0-7.78,3.707-9.85,10.926c-2.086,7.268-1.059,10.98,3.564,10.98   c2.489,0,4.942-1.535,6.267-3.949h0.074L327.996,391.982z M296.295,391.982h1.148c-0.656,2.142-1.289,3.244-2.492,3.867   l-0.457,1.583c2.706-0.91,3.813-3.116,4.482-5.451l1.152-4.024h-2.681L296.295,391.982z M266.135,391.982h2.367l4.037-14.091   c0.928-3.234,3.445-5.368,5.803-5.368c2.137,0,2.911,1.302,2.188,3.789l-4.491,15.67h2.367l4.043-14.091   c0.928-3.234,3.436-5.368,5.803-5.368c2.134,0,2.908,1.302,2.188,3.789l-4.494,15.67h2.364l4.603-16.023   c1.068-3.748-0.387-5.403-3.305-5.403c-2.681,0-4.766,1.337-6.382,3.672h-0.08c0.291-2.14-0.806-3.672-3.33-3.672   c-2.329,0-4.527,1.062-6.299,3.391h-0.08l0.835-2.922h-2.134L266.135,391.982z M263.672,367.823h2.361l1.158-4.031h-2.37   L263.672,367.823z M256.74,391.982h2.364l6.014-20.961h-2.364L256.74,391.982z M246.789,388.549   c-0.8,2.805,0.176,3.672,3.373,3.672c0.789,0,1.408-0.082,1.728-0.24l0.566-1.97c-0.56,0.155-1.055,0.234-1.53,0.234   c-1.537,0-2.089-0.55-1.614-2.206l4.314-15.041h3.708l0.566-1.977h-3.708l1.66-5.798h-2.367l-1.663,5.798h-2.881l-0.565,1.977   h2.881L246.789,388.549z M242.633,367.823h2.364l1.158-4.031h-2.37L242.633,367.823z M235.704,391.982h2.364l6.011-20.961h-2.366   L235.704,391.982z M225.799,363.327c-0.651,2.957,0.715,4.813,3.397,4.813c2.686,0,5.11-1.855,6.155-4.813h-1.737   c-0.813,2.012-2.337,3.079-3.92,3.079c-0.792,0-1.42-0.278-1.791-0.795c-0.353-0.547-0.533-1.297-0.371-2.284H225.799z    M220.621,381.249c1.913-6.675,4.16-8.727,6.959-8.727c2.805,0,3.872,2.052,1.964,8.727c-1.927,6.708-4.17,8.767-6.975,8.767   C219.767,390.011,218.699,387.957,220.621,381.249 M231.787,374.263h-0.082c-0.072-2.37-1.542-3.707-3.836-3.707   c-4.616,0-7.773,3.707-9.845,10.926c-2.401,8.375,0.221,10.5,3.463,10.5c2.172,0,4.486-1.18,5.971-3.743h0.082l-0.95,3.311   c-1.062,3.712-3.178,5.724-6.06,5.724c-2.089,0-3.608-1.18-3.039-3.151h-2.366c-0.832,2.988,0.688,5.123,4.758,5.123   c4.734,0,7.716-2.962,9.379-8.765l5.582-19.466h-2.135L231.787,374.263z M196.15,391.982h14.328l0.609-2.129h-11.804l3.303-11.527   h10.699l0.611-2.135H203.2l2.945-10.265h11.446l0.611-2.135h-13.975L196.15,391.982z"/><path d="M181.836,297.583c0.782,7.657,3.017,14.771,6.828,21.287c4.803,8.205,11.61,14.528,20.42,18.946   c8.805,4.424,19.231,6.638,31.265,6.638c18.044,0,34.743-4.618,50.101-13.839c0.873-0.52,1.641-1.18,2.498-1.732   c-8.279-13.042-10.278-29.061-10.739-35.539c-5.477,12.362-11.862,21.997-19.27,28.555c-6.484,5.763-13.288,8.636-20.402,8.636   c-6.486,0-11.663-2.321-15.539-6.966c-3.867-4.643-5.803-11.723-5.803-21.223c0-16.347,3.269-33.084,9.805-50.219   c1.596-4.179,3.265-8.069,5.008-11.719C225.086,251.086,207.768,268.904,181.836,297.583 M248.308,187.411l23.323-86.657   l-66.36,2.556l-4.338,15.029h6.582c5.182,0,8.855,0.827,11.02,2.479c2.158,1.655,3.239,3.975,3.239,6.954   c0,1.923-0.267,3.895-0.801,5.921l-27.615,103.21C210.02,218.203,229.023,199.574,248.308,187.411 M74.404,267.381   c4.053-24.038,11.091-42.92,21.108-56.642c6.82-9.466,14.173-14.197,22.065-14.197c3.946,0,7.223,1.569,9.837,4.704   c2.615,3.138,3.922,7.471,3.922,13.002c0,13.4-5.708,25.476-17.113,36.217C105.909,258.226,92.637,263.867,74.404,267.381    M428.942,319.345c-0.697-0.856-1.043-2.076-1.043-3.682c0-2.135,1.065-7.089,3.199-14.893l31.781-114.304l-40.988,3.045   l-8.656,23.181c-2.882-9.701-7.246-16.791-13.096-21.268c-5.864-4.474-13.576-6.713-23.148-6.713   c-12.613,0-24.955,3.845-37.047,11.121c5.963,8.829,10.169,20.972,10.454,37.357c0.313-0.584,0.534-1.212,0.857-1.787   c10.368-18.226,22.044-27.343,35.019-27.343c5.637,0,10.025,2.106,13.157,6.313c3.138,4.207,4.712,11.478,4.712,21.809   c-0.112,17.367-3.039,33.755-8.765,49.169c-5.729,15.409-12.309,26.398-19.731,32.957c-7.428,6.561-14.379,9.84-20.844,9.84   c-0.477,0-0.896-0.104-1.356-0.131l-0.006,0.096c0,0-4.562,0.456-9.107-3.167c-1.366-0.985-2.636-2.129-3.695-3.596   c-1.2-1.654-2.102-3.874-2.863-6.387c-0.042-0.107-0.074-0.243-0.106-0.352c-0.281-0.995-0.592-1.945-0.816-3.061   c-2.146-8.882-2.367-22.415,1.894-43.354c6.209-30.5,1.66-50.26-6.961-62.806c-0.074,0.059-0.144,0.113-0.221,0.173   c-1.104-1.588-2.095-3.265-3.384-4.709c-2.057-2.287-4.264-4.292-6.596-6.046c-0.105-0.082-0.224-0.158-0.329-0.24   c-2.258-1.659-4.632-3.076-7.143-4.251c-0.23-0.104-0.461-0.194-0.688-0.29c-5.23-2.351-10.963-3.712-17.223-4.066   c0.022-0.018,0.061-0.045,0.077-0.067c-0.246-0.027-0.512,0.027-0.758,0.005c-0.854-0.042-1.625-0.232-2.498-0.232   c-0.8,0-1.51,0.209-2.294,0.24c-3.074,0.042-6.171,0.358-9.299,0.972c-0.79,0.155-1.587,0.294-2.358,0.48   c-11.024,2.628-22.271,8.367-33.374,16.204c-11.251,8.647-29.491,24.87-57.042,54.923l-0.064,0.24   c-14.907,17.481-27.389,33.861-35.556,43.445c-0.027,0.034-0.054,0.058-0.086,0.093l-0.027-0.021   c-10.804,11.022-19.949,18.383-27.434,22.143c-0.163,0.08-0.307,0.126-0.47,0.208c-7.412,3.626-14.952,5.481-22.623,5.481   c-9.275,0-16.684-3.047-22.228-9.122c-5.545-6.08-8.312-14.763-8.312-26.065c0-2.665,0.208-6.024,0.637-10.081   c27.827-4.896,48.565-10.47,62.205-16.706c13.648-6.232,23.507-13.591,29.587-22.066c6.073-8.479,9.112-16.922,9.112-25.344   c0-10.131-3.784-18.498-11.356-25.113c-7.57-6.604-18.226-9.91-31.978-9.91c-18.765,0-36.276,4.533-52.53,13.591   c-16.26,9.069-29.081,21.46-38.456,37.186C29.691,248.173,25,264.608,25,281.772c0,19.293,5.622,34.569,16.87,45.818   c11.247,11.243,26.679,16.863,46.293,16.863c3.957,0,7.812-0.296,11.614-0.771c-0.221,0.112-0.339,0.27-0.578,0.374   c1.436-0.313,2.653-0.625,4.005-0.936c8.268-1.344,16.211-3.687,23.739-7.305c0.833-0.393,1.673-0.963,2.506-1.403   c1.95-0.982,3.903-2.075,5.816-3.26c0.467-0.289,0.928-0.59,1.393-0.886c2.202-1.43,4.464-3.058,6.739-4.845   c0.953-0.731,1.908-1.457,2.873-2.242c0.646-0.539,1.339-1.174,2.002-1.75c4.211-3.583,8.444-7.612,12.709-12.13   c0.822-0.845,1.547-1.52,2.401-2.406c5.739-6.783,11.044-12.89,16.187-18.747c0.497-0.597,0.864-1.131,1.401-1.748   c19.131-22.125,49.713-58.835,75.053-73.633c0.371-0.286,0.736-0.589,1.107-0.873c3.752-2.586,6.251-3.971,7.681-4.64   c2.949-1.225,5.889-1.918,8.816-1.918c0.864,0,1.651,0.153,2.473,0.249l-0.01-0.153c0,0,6.555-0.571,11.833,6.294   c0.269,0.317,0.585,0.553,0.844,0.888c3.135,4.098,4.866,10.388,5.355,18.629c0.688,7.85,0.317,17.972-1.952,31.35   c-4.728,29.971,0.422,48.885,8.573,60.877c0.093-0.075,0.211-0.128,0.298-0.211c1.263,1.856,2.437,3.786,3.935,5.451   c2.118,2.346,4.405,4.334,6.779,6.158c0.512,0.371,1.02,0.806,1.535,1.148c1.865,1.323,3.855,2.388,5.88,3.392   c1.36,0.662,2.694,1.257,3.97,1.745c1.916,0.739,3.88,1.376,5.934,1.848c0.976,0.245,1.836,0.438,2.61,0.579   c3.004,0.518,6.091,0.875,9.347,0.875c8.506,0,16.561-2.052,24.165-6.153c7.601-4.107,15.444-11.271,23.525-21.51   c0.752,9.171,3.209,16.071,7.377,20.708c4.168,4.63,10.054,6.954,17.639,6.954c22.133,0,42.546-18.181,61.263-54.532l-12.063-6.553   c-12.645,24.843-22.93,37.256-30.86,37.256C430.676,320.624,429.633,320.201,428.942,319.345"/></g>
</svg>